<?xml version="1.0" standalone="no"?>
<!DOCTYPE svg PUBLIC "-//W3C//DTD SVG 20010904//EN"
 "http://www.w3.org/TR/2001/REC-SVG-20010904/DTD/svg10.dtd">
<svg version="1.0" xmlns="http://www.w3.org/2000/svg"
 width="500.000000pt" height="500.000000pt" viewBox="0 0 500.000000 500.000000"
 preserveAspectRatio="xMidYMid meet">

<g transform="translate(0.000000,500.000000) scale(0.100000,-0.100000)"
fill="#000000" stroke="none">
<path d="M3097 4965 c-26 -13 -77 -44 -115 -68 -37 -24 -89 -56 -116 -71 l-49
-29 -120 18 c-79 12 -146 16 -196 12 -100 -8 -261 -51 -336 -90 -77 -41 -253
-210 -286 -274 -13 -26 -36 -67 -51 -92 -16 -25 -28 -57 -28 -71 l0 -26 70 33
70 33 133 -14 c72 -8 213 -17 312 -20 122 -4 198 -11 235 -22 68 -20 124 -73
134 -127 4 -20 15 -56 26 -80 l19 -42 0 38 c1 40 14 48 30 20 8 -15 10 -11 11
20 0 43 16 49 30 11 15 -39 12 -78 -10 -136 -11 -29 -20 -57 -20 -62 0 -14 39
24 45 45 3 10 20 25 37 34 38 19 38 19 38 -1 0 -60 -88 -142 -229 -214 -42
-21 -113 -57 -158 -79 -46 -23 -83 -46 -83 -50 0 -4 -22 -20 -50 -35 -27 -15
-52 -31 -55 -37 -8 -13 -101 -61 -145 -75 -40 -12 -233 -151 -226 -162 7 -11
-25 -65 -85 -144 -31 -40 -66 -91 -77 -113 -40 -81 -96 -181 -117 -210 -12
-16 -34 -60 -49 -96 -14 -36 -44 -94 -66 -130 -53 -85 -110 -200 -110 -219 0
-8 -9 -30 -20 -48 -11 -18 -20 -39 -20 -46 0 -7 -12 -35 -26 -60 -15 -26 -30
-62 -35 -79 -65 -256 -69 -264 -163 -378 -84 -101 -277 -279 -303 -279 -13 0
-134 -97 -165 -131 -9 -11 -33 -26 -53 -35 -29 -12 -34 -18 -25 -28 6 -8 22
-17 35 -20 33 -8 31 -18 -5 -39 -61 -37 -40 -109 37 -123 18 -3 33 -10 33 -14
0 -4 -48 -55 -107 -113 -121 -118 -160 -164 -185 -215 -25 -49 -23 -62 12 -68
17 -4 30 -12 30 -19 0 -12 62 -31 88 -26 6 1 12 -5 12 -12 0 -31 26 -39 61
-18 29 16 36 17 46 6 10 -11 9 -15 -7 -20 -11 -4 -20 -11 -20 -16 0 -6 7 -6
19 1 14 7 21 6 24 -3 4 -8 6 -7 6 3 1 10 6 8 17 -8 18 -26 61 -29 104 -7 34
18 63 15 91 -9 32 -27 68 -37 90 -26 15 8 19 7 19 -4 0 -20 40 -27 94 -17 41
8 48 6 61 -12 12 -18 18 -19 40 -9 14 6 25 17 25 24 0 10 2 10 9 0 6 -10 20
-4 60 23 29 19 57 35 62 35 5 0 41 31 79 70 39 38 70 65 70 60 0 -5 -5 -12
-10 -15 -8 -5 -8 -11 0 -20 8 -10 5 -18 -16 -32 -37 -24 -117 -104 -111 -110
15 -15 284 234 311 288 6 13 27 34 46 47 19 13 37 29 39 35 11 32 95 126 113
127 4 0 5 -6 2 -14 -9 -24 62 6 100 43 18 18 40 33 48 35 8 1 26 9 39 17 42
27 61 31 55 11 -8 -27 14 -65 89 -152 39 -45 93 -117 120 -161 238 -377 242
-384 219 -417 -20 -29 -89 -29 -150 -2 -71 33 -96 41 -89 30 3 -6 12 -10 19
-10 7 0 24 -9 38 -19 13 -11 40 -22 60 -26 30 -6 36 -11 33 -27 -5 -22 -15
-37 -15 -22 0 5 -4 15 -9 23 -8 12 -13 12 -24 3 -11 -10 -20 -8 -40 8 -31 25
-37 26 -48 8 -6 -8 -9 -9 -9 -1 0 6 -9 9 -22 6 -19 -5 -21 -3 -10 8 12 13 18
38 5 26 -3 -4 -11 -3 -17 2 -6 5 -27 11 -46 15 -19 3 -29 3 -22 0 17 -8 15
-44 -3 -44 -8 0 -15 5 -15 10 0 6 -13 10 -30 10 -19 0 -30 5 -30 14 0 21 -31
28 -49 12 -9 -8 -20 -15 -25 -14 -14 0 -46 -55 -46 -79 0 -28 1 -28 58 2 58
31 117 32 172 4 34 -18 51 -20 95 -15 42 5 66 1 105 -14 28 -11 87 -26 130
-34 44 -7 95 -23 114 -34 l35 -21 -17 34 c-9 19 -24 37 -33 40 -9 3 -22 19
-29 35 -6 16 -20 36 -31 46 -10 9 -19 23 -19 31 0 8 11 1 26 -16 31 -37 44
-39 44 -6 0 23 1 24 32 11 18 -8 35 -21 38 -31 3 -9 9 -16 13 -16 20 1 62 -26
60 -39 -4 -21 104 -93 139 -93 15 0 28 -4 28 -9 0 -4 9 -8 20 -8 10 0 23 -6
27 -13 11 -19 67 -37 95 -30 13 3 20 3 17 -1 -3 -4 -26 -10 -50 -15 l-44 -9
45 -1 c25 -1 57 -8 70 -18 14 -9 19 -10 13 -3 -24 26 -13 32 20 13 18 -11 47
-20 65 -21 26 0 35 5 47 29 21 39 65 39 128 -1 52 -33 57 -35 57 -20 0 6 -8
10 -17 10 -14 0 -15 2 -4 9 10 7 11 13 2 27 -6 11 -11 13 -11 6 0 -8 -5 -10
-12 -6 -9 5 -9 2 1 -9 19 -24 -1 -21 -27 3 -16 15 -35 20 -76 20 -60 0 -89 7
-80 21 11 19 -16 8 -29 -11 -11 -16 -23 -20 -50 -17 -20 2 -42 9 -50 15 -8 7
-36 14 -62 16 -28 2 -58 12 -76 25 -16 12 -34 19 -39 16 -5 -3 -19 5 -32 19
-13 13 -36 31 -53 39 l-30 16 35 1 c32 1 26 5 -68 54 -57 29 -113 63 -125 75
-13 11 -45 60 -71 108 -27 49 -75 132 -108 185 -84 139 -117 247 -85 280 25
26 57 76 57 91 0 8 11 30 24 50 13 19 22 37 20 40 -3 2 3 10 13 18 11 9 14 10
9 2 -15 -26 17 -12 59 24 30 28 51 38 75 38 39 0 44 -7 74 -110 l23 -80 139
-107 c76 -59 145 -105 152 -103 7 3 11 1 8 -4 -3 -4 3 -16 13 -25 17 -15 18
-15 29 9 14 30 20 31 52 5 50 -40 75 -61 63 -55 -9 4 -13 -3 -13 -21 l0 -28
-27 26 c-16 14 -37 28 -48 32 -11 4 20 -31 68 -77 l89 -83 -22 -42 c-18 -35
-27 -42 -51 -42 -34 0 -39 17 -6 23 12 2 -41 4 -118 4 -81 0 -152 5 -168 12
-16 6 -48 11 -72 11 -36 0 -48 -5 -69 -31 -43 -51 -43 -51 70 -49 50 1 85 -5
122 -19 66 -26 110 -26 170 -2 32 13 84 21 159 26 108 6 113 5 165 -21 42 -22
68 -28 123 -28 39 -1 80 -7 93 -14 12 -7 28 -10 34 -6 7 4 8 3 4 -4 -10 -17
53 -52 94 -52 39 0 80 23 80 45 0 8 11 20 24 27 19 10 21 15 11 25 -10 9 -19
8 -40 -3 -25 -13 -29 -12 -41 3 -12 16 -15 16 -23 3 -7 -10 -5 -20 6 -32 9
-10 12 -18 7 -18 -5 0 -2 -5 6 -11 11 -8 8 -9 -15 -4 -16 4 -36 8 -42 9 -7 1
-25 12 -40 24 -17 13 -29 18 -31 12 -2 -6 -11 -2 -19 9 -16 23 -52 28 -72 9
-11 -11 -13 -10 -8 4 7 19 -21 29 -65 24 -16 -2 -28 0 -28 4 0 4 -13 10 -29
13 -16 4 -39 17 -51 29 -21 22 -22 23 -35 4 -13 -17 -15 -17 -20 -3 -4 8 -13
18 -21 21 -9 3 -12 1 -9 -4 3 -6 -1 -13 -9 -16 -9 -3 -16 -12 -16 -20 0 -8 -5
-14 -11 -14 -6 0 -9 6 -6 14 3 7 0 19 -6 25 -9 9 -6 13 11 17 23 7 29 19 12
29 -5 3 -7 12 -4 20 7 18 41 11 68 -14 32 -28 84 -52 91 -41 3 5 -12 18 -34
30 -74 37 -115 71 -252 204 -196 191 -239 255 -239 352 0 47 20 88 84 172 44
56 75 72 54 27 -15 -34 0 -46 21 -16 9 14 30 38 48 54 17 16 29 35 27 42 -3 7
0 16 7 21 8 5 11 2 7 -7 -3 -8 -2 -23 2 -34 6 -15 -1 -29 -29 -59 -34 -37 -34
-38 -6 -18 58 40 146 154 196 254 18 35 42 77 55 94 13 17 24 35 24 41 0 5 11
20 25 33 14 13 25 20 25 17 0 -12 -90 -207 -121 -262 -17 -30 -28 -62 -26 -72
4 -17 5 -17 6 0 0 9 6 17 11 17 6 0 10 7 10 15 0 8 5 15 10 15 6 0 10 4 10 9
0 6 12 23 26 38 14 15 33 42 41 58 8 17 25 41 38 55 12 14 28 43 35 65 7 22
22 58 32 80 l19 40 -5 -60 c-3 -33 -8 -76 -11 -95 -4 -31 -3 -30 11 10 8 25
22 83 29 130 7 47 19 99 26 115 l12 30 7 -35 c6 -29 8 -31 9 -9 0 15 8 40 16
55 8 16 15 37 15 47 0 9 4 17 9 17 13 0 21 -26 21 -65 0 -27 20 -65 35 -65 2
0 32 13 68 29 48 22 85 49 141 106 68 69 177 210 230 298 11 18 32 52 47 76
15 23 36 66 45 95 9 28 21 56 25 62 20 25 69 159 80 217 16 90 13 139 -16 220
-43 120 -67 166 -89 173 -33 10 -56 35 -56 61 0 12 -16 40 -35 61 -70 78 -152
314 -116 336 13 8 32 -42 25 -68 -3 -14 1 -27 10 -35 13 -11 16 -9 22 13 3 14
3 33 0 41 -4 10 -2 14 5 9 8 -5 10 3 6 27 -3 19 -9 52 -13 73 -9 52 8 41 43
-27 26 -51 26 -52 34 -25 7 27 -14 158 -30 187 -5 7 -4 32 1 55 8 36 5 49 -20
99 -16 31 -31 55 -33 52 -3 -2 -5 4 -6 15 -1 12 3 17 12 14 18 -7 30 15 16 29
-6 6 -11 22 -11 35 0 43 -60 138 -133 214 -88 90 -177 168 -192 168 -6 0 -19
13 -28 30 -10 16 -32 39 -50 51 -18 13 -48 36 -67 53 -19 17 -46 39 -60 49
-28 20 -24 19 65 -14 l50 -19 -38 33 c-21 18 -59 39 -83 46 -25 8 -41 17 -35
21 13 7 -23 19 -139 47 -74 17 -74 18 -35 23 l40 5 -34 8 c-73 16 -307 -6
-408 -38 -38 -12 -26 8 22 38 70 45 52 53 -28 12z m153 -260 c0 -9 -6 -12 -16
-8 -13 5 -13 7 -2 14 17 11 18 11 18 -6z m106 -24 c30 -35 12 -39 -27 -7 -17
14 -35 26 -40 26 -5 0 -9 5 -9 10 0 18 53 -2 76 -29z m22 19 c12 -19 11 -20
-8 -8 -11 7 -20 16 -20 20 0 15 15 8 28 -12z m118 4 c-3 -7 0 -15 7 -17 7 -2
9 -8 5 -12 -8 -8 -48 22 -48 34 0 4 9 7 20 7 12 0 19 -5 16 -12z m-299 0 c-3
-3 -12 -4 -19 -1 -8 3 -5 6 6 6 11 1 17 -2 13 -5z m658 -55 l20 -23 -32 23
c-38 26 -56 49 -27 33 11 -6 28 -20 39 -33z m-937 -14 c-8 -9 -58 9 -58 20 0
11 7 10 31 -2 16 -8 29 -16 27 -18z m750 -77 c30 -38 39 -58 27 -58 -7 0 -63
64 -100 114 l-30 41 35 -29 c19 -15 50 -46 68 -68z m-449 68 c26 -14 61 -55
61 -73 0 -3 -12 5 -27 19 -37 34 -66 48 -98 48 -65 0 -112 -56 -103 -121 5
-29 4 -30 -9 -14 -7 11 -13 26 -13 35 0 24 55 103 77 111 30 13 83 10 112 -5z
m499 -37 c2 -23 2 -23 -23 6 -31 37 -32 52 -2 33 12 -9 23 -26 25 -39z m-1313
31 c3 -5 1 -10 -4 -10 -6 0 -11 5 -11 10 0 6 2 10 4 10 3 0 8 -4 11 -10z m42
4 c-3 -3 -12 -4 -19 -1 -8 3 -5 6 6 6 11 1 17 -2 13 -5z m253 -18 c0 -3 -4 -8
-10 -11 -5 -3 -10 -1 -10 4 0 6 5 11 10 11 6 0 10 -2 10 -4z m645 -6 c3 -5 1
-10 -4 -10 -6 0 -11 5 -11 10 0 6 2 10 4 10 3 0 8 -4 11 -10z m-250 -38 c-13
-14 -27 -24 -30 -21 -7 8 38 57 47 52 4 -2 -3 -16 -17 -31z m93 22 c13 -4 22
-14 22 -26 0 -18 -2 -18 -22 -4 -12 9 -30 16 -40 16 -10 0 -18 5 -18 10 0 11
24 13 58 4z m302 -19 c12 -13 26 -22 31 -20 8 6 64 -13 58 -20 -3 -2 -25 1
-49 6 -43 10 -80 33 -80 51 0 15 16 8 40 -17z m-870 -10 c0 -8 -7 -15 -15 -15
-8 0 -15 7 -15 15 0 8 7 15 15 15 8 0 15 -7 15 -15z m-92 -25 c21 -11 48 -29
60 -40 12 -12 22 -19 22 -16 0 3 21 -2 48 -10 26 -9 53 -16 59 -16 7 -1 27
-13 45 -28 l32 -27 -59 9 c-132 20 -190 26 -194 23 -6 -6 41 -23 112 -39 34
-8 89 -24 121 -35 33 -12 67 -21 77 -21 10 0 35 -9 56 -19 97 -49 155 -72 168
-67 7 2 16 0 19 -7 2 -7 5 -7 5 -2 1 22 -19 35 -124 79 -87 36 -103 45 -78 46
40 0 107 -26 149 -57 17 -13 36 -23 42 -23 15 0 32 -33 32 -60 0 -14 -4 -19
-12 -14 -8 4 -9 3 -5 -2 5 -5 14 -9 20 -10 7 0 19 -2 28 -2 9 -1 20 -9 23 -18
4 -9 2 -13 -5 -8 -7 4 -10 1 -7 -7 5 -15 78 -20 88 -7 3 4 18 1 33 -7 17 -9
27 -10 27 -3 0 7 6 6 15 -2 9 -7 15 -8 15 -2 0 5 11 13 26 16 24 6 71 -17 99
-50 6 -6 22 -19 37 -28 20 -13 27 -14 32 -4 4 9 5 8 4 -2 -1 -8 3 -25 10 -37
11 -20 10 -21 -31 -18 -59 4 -59 4 -51 17 5 7 2 9 -8 5 -9 -3 -24 1 -35 8 -24
19 -39 19 -23 0 11 -13 11 -18 0 -28 -10 -9 -11 -9 -6 1 4 6 2 12 -3 12 -6 0
-11 -4 -11 -10 0 -24 -36 -6 -96 47 -35 31 -75 57 -89 59 -14 1 -37 11 -52 21
-16 11 -48 28 -73 38 -25 11 -63 30 -85 43 -72 42 -186 92 -232 102 -24 6 -62
19 -84 30 -21 11 -42 20 -46 19 -5 -1 -12 0 -18 1 -5 2 -23 4 -40 6 -198 19
-278 24 -320 20 -34 -4 -44 -2 -30 4 11 5 65 10 120 11 l100 2 -100 9 c-122
11 -234 -8 -373 -60 -83 -32 -51 -8 45 33 49 21 99 45 112 54 l24 15 -23 6
c-23 5 -23 6 10 27 30 19 37 20 51 7 8 -7 28 -14 43 -14 15 0 25 -4 22 -9 -3
-5 2 -8 12 -7 9 0 21 7 25 14 11 16 37 16 37 -1 0 -14 14 -14 100 0 36 7 46
12 48 31 4 27 11 27 60 2z m617 -40 c-3 -5 -10 -10 -16 -10 -5 0 -9 5 -9 10 0
6 7 10 16 10 8 0 12 -4 9 -10z m862 -12 c2 -17 0 -19 -7 -8 -5 8 -6 18 -4 22
8 12 10 10 11 -14z m-598 -17 l21 -29 -39 21 c-22 12 -37 25 -35 29 10 16 33
7 53 -21z m-146 4 c-3 -9 -8 -14 -10 -11 -3 3 -2 9 2 15 9 16 15 13 8 -4z
m-101 -35 c24 0 50 4 58 9 22 14 34 1 13 -15 -27 -20 -103 -17 -140 6 -41 25
-43 36 -3 15 16 -8 48 -15 72 -15z m-1037 -46 c-75 -17 -103 -16 -50 1 22 8
56 13 75 13 28 0 23 -3 -25 -14z m2060 -104 c6 -22 5 -23 -7 -10 -8 8 -20 29
-27 45 -12 30 -12 30 7 10 11 -11 23 -31 27 -45z m-2325 40 c-8 -6 -23 -15
-33 -21 -16 -9 -17 -8 -5 10 7 12 22 21 33 21 17 0 18 -2 5 -10z m2000 0 c11
-8 8 -9 -14 -6 -16 3 -31 8 -34 11 -10 9 33 5 48 -5z m-402 -49 c11 -7 10 -10
-3 -15 -20 -7 -38 1 -30 15 7 11 16 11 33 0z m32 -36 c11 -13 10 -14 -4 -9 -9
3 -16 10 -16 15 0 13 6 11 20 -6z m-55 -8 c11 -9 14 -16 7 -21 -6 -3 -13 -2
-17 4 -3 5 -10 10 -15 10 -5 0 14 -21 41 -47 60 -59 63 -73 7 -32 -46 33 -69
65 -61 86 6 16 15 16 38 0z m190 -67 c3 -5 1 -10 -4 -10 -6 0 -11 5 -11 10 0
6 2 10 4 10 3 0 8 -4 11 -10z m205 -42 c0 -4 -4 -8 -9 -8 -6 0 -12 4 -15 8 -3
5 1 9 9 9 8 0 15 -4 15 -9z m75 2 c3 -5 2 -10 -4 -10 -5 0 -13 5 -16 10 -3 6
-2 10 4 10 5 0 13 -4 16 -10z m-370 -18 c-3 -3 -11 0 -18 7 -9 10 -8 11 6 5
10 -3 15 -9 12 -12z m90 8 c3 -6 -1 -7 -9 -4 -18 7 -21 14 -7 14 6 0 13 -4 16
-10z m-622 -30 c3 -11 1 -18 -4 -14 -5 3 -9 12 -9 20 0 20 7 17 13 -6z m293
-57 c-4 -5 -86 56 -86 64 0 2 21 -10 46 -27 25 -18 43 -34 40 -37z m846 -8
c13 -28 28 -33 28 -9 0 8 5 12 10 9 6 -3 10 -15 10 -26 0 -11 -4 -18 -9 -14
-5 3 -13 1 -16 -5 -5 -8 -11 -8 -20 0 -8 7 -20 8 -27 4 -7 -4 -10 -3 -5 1 4 5
0 16 -9 26 -9 10 -13 23 -9 28 11 19 35 12 47 -14z m-844 -66 c2 -23 2 -23
-13 -5 -18 24 -20 39 -2 34 6 -3 13 -15 15 -29z m749 5 c-3 -3 -12 -4 -19 -1
-8 3 -5 6 6 6 11 1 17 -2 13 -5z m-898 -74 c-8 -42 -20 -70 -38 -88 -15 -15
-22 -24 -17 -20 5 4 18 -4 28 -18 19 -24 19 -25 1 -52 l-18 -27 -3 33 c-4 43
-29 53 -53 21 -13 -18 -21 -21 -29 -12 -9 8 -7 13 8 17 18 6 28 24 45 78 3 9
16 18 29 20 19 2 25 12 35 58 6 30 12 57 12 59 1 2 4 2 7 -1 3 -3 0 -34 -7
-68z m-175 45 c-4 -8 -11 -15 -16 -15 -6 0 -5 6 2 15 7 8 14 15 16 15 2 0 1
-7 -2 -15z m240 -6 c-11 -5 -13 -8 -5 -8 8 -1 12 -4 8 -7 -10 -10 -26 6 -21
21 3 8 12 11 22 8 13 -6 13 -8 -4 -14z m124 -4 c-3 -3 -9 2 -12 12 -6 14 -5
15 5 6 7 -7 10 -15 7 -18z m162 -15 c0 -5 -7 -7 -15 -4 -8 4 -15 8 -15 10 0 2
7 4 15 4 8 0 15 -4 15 -10z m595 -10 c10 -11 16 -20 14 -21 -2 0 -19 -2 -38
-5 -45 -6 -48 -10 -26 -34 10 -11 16 -20 14 -20 -11 1 -110 38 -115 43 -10 10
7 49 20 44 7 -3 19 -1 27 4 26 16 85 10 104 -11z m-1130 -105 c-19 -43 -22
-61 -14 -71 15 -19 -19 -89 -51 -105 -14 -7 -33 -20 -42 -28 -12 -9 -18 -10
-19 -3 -5 49 -3 81 7 108 14 34 44 65 44 45 0 -8 5 -7 15 3 8 8 15 19 15 24 0
5 7 15 14 22 8 6 20 28 26 48 20 64 23 69 27 41 2 -14 -7 -52 -22 -84z m1203
65 c12 -12 22 -26 22 -33 0 -7 3 -23 7 -37 6 -24 6 -24 -20 5 -23 26 -26 28
-27 10 -1 -19 -1 -19 -11 -1 -15 25 -18 76 -4 76 6 0 21 -9 33 -20z m-268 -5
c0 -8 -2 -15 -4 -15 -2 0 -6 7 -10 15 -3 8 -1 15 4 15 6 0 10 -7 10 -15z
m-720 -6 c0 -6 7 -8 16 -5 14 5 15 4 5 -8 -7 -8 -19 -12 -27 -9 -16 6 -19 33
-4 33 6 0 10 -5 10 -11z m-42 -65 c-14 -14 -16 -14 -22 1 -4 13 -2 16 9 11 8
-3 15 0 15 6 0 6 3 8 7 4 4 -3 0 -13 -9 -22z m487 -4 c10 -11 16 -20 13 -20
-3 0 -13 9 -23 20 -10 11 -16 20 -13 20 3 0 13 -9 23 -20z m-54 -20 c27 -15
24 -30 -6 -30 -18 0 -26 -7 -31 -25 -3 -14 -10 -25 -15 -25 -12 0 -11 47 1 71
12 22 23 24 51 9z m324 0 c3 -5 2 -10 -4 -10 -5 0 -13 5 -16 10 -3 6 -2 10 4
10 5 0 13 -4 16 -10z m-195 -32 c0 -16 -3 -19 -11 -11 -6 6 -8 16 -5 22 11 17
16 13 16 -11z m-53 -20 c8 -6 4 -16 -13 -33 -16 -16 -24 -34 -22 -53 2 -30 -7
-52 -23 -52 -12 0 -12 65 0 88 6 9 12 30 16 45 5 27 12 28 42 5z m274 -38 c34
-55 34 -60 9 -60 -11 0 -20 5 -20 10 0 21 -18 9 -33 -22 l-16 -33 -10 28 c-18
46 -16 50 31 50 19 0 13 23 -8 31 -9 3 -13 10 -9 15 3 6 -3 15 -12 21 -15 9
-13 10 11 8 23 -2 36 -13 57 -48z m-891 -9 c7 -2 -23 -21 -33 -21 -5 0 -6 4
-3 9 4 5 0 12 -6 15 -10 4 10 2 42 -3z m1040 -22 c0 -6 7 -17 15 -26 19 -19
14 -38 -9 -38 -14 0 -19 9 -20 42 -1 23 1 40 6 37 4 -3 8 -10 8 -15z m-975 -7
c-3 -3 -11 0 -18 7 -9 10 -8 11 6 5 10 -3 15 -9 12 -12z m706 -45 c-13 -13
-15 11 -4 40 7 16 8 15 11 -6 2 -13 -1 -28 -7 -34z m-841 13 c0 -11 -50 -31
-62 -24 -5 4 0 16 13 30 17 18 25 21 36 13 7 -6 13 -15 13 -19z m610 -19 c0
-5 -7 -12 -16 -15 -14 -5 -15 -4 -4 9 14 17 20 19 20 6z m170 0 c0 -17 -21
-24 -33 -12 -9 9 -7 10 7 5 13 -5 17 -4 12 4 -4 7 -2 12 3 12 6 0 11 -4 11 -9z
m-742 -72 c-3 -27 -3 -49 0 -49 3 0 25 21 50 48 l45 47 -6 -37 c-20 -113 -20
-115 -5 -93 8 11 21 41 28 68 12 46 33 68 23 25 -4 -19 -3 -20 6 -8 8 11 11
12 11 2 0 -8 5 -10 12 -6 8 5 9 2 4 -12 -5 -10 -9 -62 -11 -114 -3 -95 -3 -96
21 -98 13 -1 24 2 24 7 0 8 49 65 51 59 10 -40 7 -49 -16 -58 -14 -5 -25 -12
-25 -16 0 -3 7 -4 15 0 8 3 15 1 15 -4 0 -5 7 -7 15 -4 11 5 15 -1 15 -22 0
-23 2 -26 10 -14 5 8 10 26 10 39 0 13 11 36 24 52 13 15 26 34 28 41 4 10 8
10 21 -1 10 -7 17 -9 17 -3 0 6 -6 13 -12 15 -7 3 -1 5 15 4 15 -1 27 -3 27
-5 0 -10 -56 -47 -67 -44 -14 3 -36 -34 -29 -51 2 -7 5 -5 5 4 1 24 33 28 53
8 16 -17 14 -29 -4 -29 -4 0 -8 8 -8 18 -1 9 -10 -5 -22 -32 -19 -43 -20 -50
-6 -60 8 -6 18 -22 22 -36 l7 -25 -14 24 c-10 17 -16 20 -20 10 -3 -10 -8 -6
-15 11 -8 19 -11 21 -11 7 -1 -14 -6 -17 -21 -12 -12 4 -27 2 -35 -5 -10 -9
-16 -7 -24 7 -9 14 -9 12 -5 -14 10 -49 -4 -123 -23 -123 -10 0 -13 5 -8 18
11 29 18 72 11 72 -3 0 -12 -16 -21 -36 -8 -19 -19 -33 -25 -29 -5 3 -10 -1
-10 -9 0 -10 -9 -16 -22 -17 -13 0 -17 -3 -10 -6 6 -2 12 -9 12 -15 0 -7 -5
-6 -14 1 -11 9 -12 20 -5 44 18 63 3 89 -27 50 -12 -16 -13 -15 -14 15 0 17
-4 32 -9 32 -17 0 -19 42 -6 88 19 62 11 65 -17 6 -13 -27 -28 -48 -33 -47 -6
1 -11 -10 -11 -24 -1 -15 2 -23 10 -20 7 3 1 -18 -13 -47 -13 -28 -26 -46 -28
-39 -2 6 3 26 12 43 14 26 14 31 1 36 -24 9 -29 59 -10 96 19 38 17 37 -24
-15 l-30 -37 -13 70 c-8 45 -17 70 -25 70 -8 0 -16 17 -20 40 -8 47 -20 52
-29 11 -3 -16 -13 -32 -22 -35 -11 -5 -12 -10 -5 -19 8 -9 8 -33 2 -77 -7 -49
-6 -71 6 -98 20 -49 18 -72 -14 -128 -25 -45 -42 -67 -112 -144 -14 -15 -26
-35 -28 -44 -2 -10 -19 -38 -38 -62 -19 -25 -34 -50 -34 -55 0 -15 -19 -10
-39 10 -19 19 -19 20 17 48 20 15 46 35 56 45 11 10 24 18 28 18 5 0 4 9 -2
19 -7 14 -6 27 5 47 9 18 12 42 8 70 -3 24 -2 51 2 61 4 10 7 28 6 39 -1 15 5
23 20 27 18 5 20 10 15 34 -4 15 -7 41 -6 57 0 22 -3 27 -16 22 -15 -6 -15 -4
-3 11 12 15 12 16 -3 10 -10 -3 -20 -1 -24 4 -7 13 31 51 41 41 4 -4 6 0 3 8
-3 8 -19 16 -38 18 -33 3 -70 33 -70 56 0 6 -17 31 -38 55 -37 43 -39 44 -72
33 -18 -7 -35 -10 -37 -8 -9 9 11 35 30 40 35 9 87 7 87 -4 0 -5 7 -10 15 -10
8 0 15 -3 15 -7 0 -5 10 -19 21 -33 14 -16 19 -19 15 -7 -3 11 0 17 9 17 8 0
15 -4 15 -9 0 -5 15 -8 33 -7 21 0 31 -3 30 -11 -3 -14 9 -17 20 -6 4 3 -7 16
-23 28 -23 17 -27 24 -16 28 8 3 20 -1 26 -9 7 -8 21 -14 31 -14 9 0 24 -7 33
-15 26 -26 38 -16 17 14 -19 27 -49 44 -96 55 -11 2 10 3 48 1 55 -3 73 -8 98
-29 32 -28 68 -34 70 -13 3 24 -3 42 -18 60 -15 16 -14 17 3 17 11 0 26 -6 33
-12 10 -11 11 -10 6 5 -4 9 -11 17 -16 17 -5 0 -9 5 -9 10 0 7 13 8 34 5 20
-4 36 -2 41 4 14 24 27 -3 23 -50z m1222 -7 c-6 -2 -10 -11 -10 -20 0 -9 -4
-23 -9 -30 -5 -9 -9 10 -10 50 l-1 63 20 -30 c11 -16 15 -31 10 -33z m-437 24
c3 -8 -2 -20 -10 -28 -15 -11 -16 -11 -10 5 3 9 2 17 -4 17 -6 0 -7 5 -4 10 9
14 22 12 28 -4z m371 -13 c15 -78 18 -123 7 -123 -6 0 -11 11 -11 24 0 13 -6
29 -14 35 -15 13 -29 64 -15 55 5 -3 9 4 9 15 0 31 18 26 24 -6z m-448 -6 c2
-7 0 -24 -6 -38 -10 -23 -10 -23 -5 5 4 19 1 32 -7 37 -10 7 -10 9 0 9 7 0 15
-6 18 -13z m-479 -37 c1 -11 -2 -20 -8 -20 -5 0 -9 9 -9 20 0 11 4 20 8 20 4
0 8 -9 9 -20z m1050 -45 c18 -29 19 -36 7 -46 -19 -16 -25 -8 -34 41 -9 49 -2
50 27 5z m-1788 -1 c-6 -7 -8 -17 -5 -22 3 -5 -1 -9 -9 -9 -8 0 -13 3 -10 5 3
3 0 11 -7 19 -9 11 -7 12 7 6 14 -5 17 -3 12 10 -4 11 -2 14 9 10 11 -4 12 -9
3 -19z m1488 1 c-15 -16 -22 -11 -13 10 3 9 10 13 16 10 6 -4 5 -11 -3 -20z
m-767 -5 c-6 -11 -16 -20 -23 -19 -9 0 -9 2 1 6 6 2 12 9 12 14 0 6 -4 7 -10
4 -5 -3 -10 -1 -10 4 0 6 9 11 20 11 18 0 19 -3 10 -20z m180 11 c0 -5 2 -16
5 -24 3 -7 0 -14 -7 -14 -7 0 -21 -4 -32 -8 -17 -8 -17 -6 -2 24 16 29 36 42
36 22z m-955 -22 c-4 -5 -12 -9 -18 -8 -9 0 -8 2 1 6 6 2 9 10 6 15 -4 7 -2 8
5 4 6 -4 9 -12 6 -17z m-15 -29 c0 -5 -6 -10 -12 -10 -7 0 -24 -3 -38 -5 -22
-5 -21 -3 5 9 36 18 45 19 45 6z m1085 -10 c3 -6 -1 -7 -9 -4 -18 7 -21 14 -7
14 6 0 13 -4 16 -10z m481 -66 c12 -122 7 -144 -30 -137 -17 4 -25 -1 -29 -16
-10 -40 -25 -21 -29 37 -2 43 2 67 18 99 18 36 19 44 6 56 -9 10 -11 17 -3 21
6 4 11 0 12 -11 0 -12 2 -14 6 -4 5 11 7 11 14 0 7 -11 10 -9 15 9 9 33 13 24
20 -54z m91 54 c-1 -10 -6 -18 -12 -18 -5 0 -4 -4 4 -9 12 -8 12 -12 0 -28 -8
-10 -20 -18 -28 -18 -19 0 -26 60 -9 79 18 20 47 16 45 -6z m-897 8 c0 -3 -4
-8 -10 -11 -5 -3 -10 -1 -10 4 0 6 5 11 10 11 6 0 10 -2 10 -4z m290 -6 c0 -5
-5 -10 -11 -10 -5 0 -7 5 -4 10 3 6 8 10 11 10 2 0 4 -4 4 -10z m91 -9 c-7 -5
-13 -12 -13 -17 -1 -26 -28 -50 -28 -25 0 14 42 63 48 56 4 -3 1 -10 -7 -14z
m636 -28 c-3 -10 -5 -4 -5 12 0 17 2 24 5 18 2 -7 2 -21 0 -30z m96 -33 c10
-60 15 -108 23 -210 6 -79 5 -83 -11 -70 -15 13 -19 12 -31 -5 -8 -10 -14 -27
-14 -37 0 -10 -6 -18 -12 -18 -10 0 -13 28 -13 105 0 76 -4 108 -13 114 -9 5
-11 20 -6 52 l7 44 13 -35 c13 -34 13 -32 9 32 -4 70 -1 80 24 76 10 -2 19
-19 24 -48z m41 -40 c5 -17 4 -20 -2 -10 -5 8 -13 26 -16 40 -5 17 -4 20 2 10
5 -8 13 -26 16 -40z m-844 30 c0 -5 -4 -10 -10 -10 -5 0 -10 5 -10 10 0 6 5
10 10 10 6 0 10 -4 10 -10z m610 -79 c0 -25 2 -64 5 -86 l5 -40 -20 40 c-11
22 -18 46 -15 52 3 9 -5 11 -25 9 -26 -3 -30 0 -30 20 0 18 6 24 21 24 11 0
18 -4 14 -9 -3 -5 -1 -12 5 -16 21 -13 9 43 -12 59 -16 12 -17 15 -6 12 10 -3
20 0 24 6 13 20 34 -24 34 -71z m-675 55 c7 3 16 0 21 -7 4 -7 3 -10 -4 -5 -6
3 -4 -7 4 -24 9 -16 20 -30 25 -30 13 0 11 -36 -5 -75 -28 -67 -60 -41 -80 64
-12 64 -12 72 3 81 9 5 17 5 19 0 2 -5 9 -7 17 -4z m-1365 -9 c0 -8 -3 -17 -7
-20 -9 -9 -34 13 -27 24 8 14 34 11 34 -4z m2360 -34 c0 -3 -9 2 -20 12 -11
10 -20 22 -20 27 0 4 9 -1 20 -12 11 -11 20 -23 20 -27z m-825 -1 c-8 -9 -25
20 -18 31 3 5 10 2 15 -7 6 -10 7 -20 3 -24z m-1415 14 c0 -8 -7 -16 -15 -20
-15 -5 -21 14 -8 27 11 12 23 8 23 -7z m409 -8 c10 -18 11 -20 0 -10 -7 6 -17
12 -22 12 -4 0 -5 -6 -1 -12 5 -10 4 -10 -6 -1 -12 11 -6 33 8 33 4 0 13 -10
21 -22z m-473 -3 l28 -14 -30 -11 c-16 -6 -42 -18 -58 -26 -37 -18 -36 -18
-36 5 0 18 43 61 60 61 4 0 20 -7 36 -15z m322 -15 c-7 -11 -21 -20 -31 -20
-30 0 1 30 41 39 1 1 -3 -8 -10 -19z m72 5 c-7 -9 -15 -13 -17 -11 -7 7 7 26
19 26 6 0 6 -6 -2 -15z m1038 -22 c21 -46 10 -123 -18 -123 -17 0 -16 35 3 70
19 35 19 35 -1 11 -24 -30 -35 -15 -26 38 7 44 22 46 42 4z m312 2 c0 -8 -7
-15 -15 -15 -13 0 -14 3 -3 15 16 18 18 18 18 0z m-40 -5 c0 -5 -7 -10 -16
-10 -8 0 -12 5 -9 10 3 6 10 10 16 10 5 0 9 -4 9 -10z m-143 -45 c9 -25 -4
-29 -17 -6 -7 15 -7 21 0 21 6 0 13 -7 17 -15z m-1382 -5 c3 -5 2 -10 -4 -10
-5 0 -13 5 -16 10 -3 6 -2 10 4 10 5 0 13 -4 16 -10z m1755 0 c4 0 14 -14 21
-32 11 -26 11 -32 -1 -36 -9 -3 -6 -9 10 -17 l23 -12 -28 -7 c-23 -6 -25 -9
-13 -23 12 -15 11 -15 -9 -5 -16 9 -24 9 -29 0 -4 -7 -3 -8 4 -4 8 5 10 1 5
-11 -6 -14 -9 -12 -20 15 -7 18 -20 32 -28 32 -20 0 -19 3 7 61 15 32 28 47
36 44 8 -3 17 -5 22 -5z m-80 -25 c0 -24 -12 -45 -26 -45 -15 0 -30 43 -20 58
8 14 46 3 46 -13z m-1950 -28 c0 -17 -11 -28 -46 -45 l-46 -23 22 31 c18 25
57 60 67 60 2 0 3 -10 3 -23z m216 -36 c-10 -11 -15 -24 -12 -30 4 -6 -5 -13
-19 -17 -27 -7 -35 -24 -11 -24 31 0 24 -20 -21 -67 -26 -26 -43 -41 -38 -33
6 11 3 10 -12 -2 -25 -22 -49 -23 -57 -2 -4 9 -5 18 -4 19 45 30 77 59 72 66
-3 5 -1 9 4 9 6 0 17 18 26 40 9 22 20 41 26 41 5 1 14 2 19 3 5 0 13 4 17 9
17 16 26 6 10 -12z m-392 -37 c-9 -13 -19 -22 -22 -19 -8 8 20 55 29 49 5 -3
1 -16 -7 -30z m1266 -14 c12 -8 13 -10 1 -10 -8 0 -23 -8 -34 -17 -11 -10 -18
-13 -15 -8 3 6 8 18 11 28 7 19 15 21 37 7z m-1300 -41 c-7 -11 -14 -18 -17
-15 -3 3 0 12 7 21 18 21 23 19 10 -6z m2395 -72 c-15 -49 -11 -92 6 -65 6 9
9 6 9 -10 0 -30 -28 -84 -40 -77 -6 4 -13 -2 -17 -12 -8 -22 -29 -44 -35 -37
-10 10 13 100 32 126 11 15 17 33 14 41 -3 8 -1 18 5 21 6 4 7 14 4 23 -5 14
24 49 33 40 2 -2 -3 -24 -11 -50z m-1815 13 c0 -5 -5 -10 -11 -10 -5 0 -7 5
-4 10 3 6 8 10 11 10 2 0 4 -4 4 -10z m330 -10 c-6 -11 -18 -20 -26 -20 -12 0
-10 5 7 20 30 25 32 25 19 0z m-373 -24 c-3 -7 -18 -13 -32 -13 -18 0 -23 2
-14 8 7 4 16 6 20 3 4 -2 11 6 15 18 4 14 9 18 12 10 2 -7 2 -19 -1 -26z m103
-16 c0 -5 -4 -10 -10 -10 -5 0 -10 5 -10 10 0 6 5 10 10 10 6 0 10 -4 10 -10z
m1297 -42 c-3 -8 -6 -5 -6 6 -1 11 2 17 5 13 3 -3 4 -12 1 -19z m383 18 c0 -2
-8 -10 -17 -17 -16 -13 -17 -12 -4 4 13 16 21 21 21 13z m-425 -46 c7 -21 6
-23 -7 -13 -8 7 -19 9 -23 5 -5 -4 -5 1 -2 11 4 10 7 24 7 30 0 17 17 -4 25
-33z m-2006 -68 c-6 -10 -21 -25 -33 -32 -20 -12 -20 -12 -6 5 41 51 64 67 39
27z m1665 -17 c-19 -30 -26 -28 -17 3 3 12 12 22 19 22 12 0 11 -5 -2 -25z
m-859 -35 c-15 -16 -44 -38 -64 -47 -45 -23 -158 -99 -166 -113 -14 -22 -33
-10 -30 20 3 37 65 90 106 90 15 0 31 5 34 10 4 6 10 8 13 6 4 -2 34 10 67 29
33 18 62 33 64 34 3 0 -8 -12 -24 -29z m-695 12 c0 -5 -17 -22 -37 -38 -135
-108 -172 -134 -166 -118 8 20 52 61 132 121 57 43 71 49 71 35z m260 -17 c0
-8 -20 -28 -45 -45 -25 -17 -45 -27 -45 -23 1 11 36 53 45 53 3 0 13 7 21 15
19 19 24 19 24 0z m2050 -28 c-12 -18 -30 -51 -40 -74 -20 -44 -99 -137 -108
-128 -13 13 -7 47 10 56 19 10 27 -4 8 -16 -5 -3 -10 -11 -10 -18 0 -6 7 -1
16 11 14 20 20 37 23 64 1 5 30 42 89 113 9 11 15 24 14 28 -1 5 2 6 8 2 7 -4
4 -18 -10 -38z m-2435 17 c-36 -28 -61 -36 -30 -10 17 14 35 26 40 26 6 -1 1
-8 -10 -16z m1665 -1 c0 -5 -9 -19 -20 -33 -21 -27 -27 -12 -8 20 13 20 28 27
28 13z m507 -25 c-3 -8 -6 -5 -6 6 -1 11 2 17 5 13 3 -3 4 -12 1 -19z m-2263
-55 c-36 -53 -41 -55 -14 -5 13 23 27 42 32 42 4 0 -4 -17 -18 -37z m256 12
c0 -2 -10 -9 -22 -15 -22 -11 -22 -10 -4 4 21 17 26 19 26 11z m-87 -70 c-10
-13 -24 -25 -31 -25 -7 0 -11 -3 -9 -8 3 -4 -12 -20 -34 -35 -30 -22 -39 -25
-39 -13 0 9 3 16 8 16 4 0 32 20 62 45 30 25 56 45 58 45 2 0 -5 -11 -15 -25z
m1625 3 c-4 -17 -20 -28 -31 -21 -9 5 11 33 24 33 5 0 8 -6 7 -12z m482 -3 c0
-21 -35 -88 -54 -104 -14 -11 -16 -11 -17 5 -1 11 -3 30 -4 44 -4 36 21 70 50
70 16 0 25 -6 25 -15z m-2045 -77 c-37 -40 -84 -83 -105 -96 l-38 -23 -4 41
c-3 32 0 41 14 46 10 3 23 2 29 -2 7 -4 9 -3 5 4 -6 10 21 25 36 19 4 -1 24
14 45 34 35 34 55 46 76 48 5 1 -21 -32 -58 -71z m320 33 c3 -10 1 -31 -5 -47
-6 -16 -11 -29 -10 -29 2 0 -4 -16 -12 -35 -9 -19 -35 -52 -59 -74 -24 -21
-58 -56 -76 -78 -40 -50 -106 -103 -111 -89 -7 21 -28 10 -87 -45 -37 -34 -66
-53 -76 -51 -11 3 -34 -12 -60 -39 -44 -45 -61 -49 -51 -11 9 38 44 67 81 67
29 0 32 2 21 15 -11 13 -9 20 10 40 13 14 32 25 42 25 11 0 18 7 18 18 0 11 9
27 20 37 15 13 17 21 9 31 -8 10 5 23 58 57 69 45 167 138 169 160 0 6 2 17 2
24 1 7 14 11 31 8 20 -2 35 3 47 16 22 24 31 24 39 0z m1546 1 c-12 -23 -41
-48 -41 -36 0 5 -5 2 -10 -6 -8 -12 -10 -9 -10 11 0 17 8 30 23 37 35 17 49
15 38 -6z m-1793 -82 c-45 -49 -87 -90 -93 -90 -5 -1 -25 -20 -44 -44 -25 -32
-40 -43 -57 -41 -13 1 -22 -1 -20 -4 2 -3 -13 -24 -35 -46 -28 -29 -39 -35
-39 -22 0 26 139 166 187 189 23 11 61 41 83 66 67 77 73 82 87 82 8 0 -23
-40 -69 -90z m1152 65 c0 -14 -4 -25 -10 -25 -5 0 -10 11 -10 25 0 14 5 25 10
25 6 0 10 -11 10 -25z m530 5 c0 -5 -5 -10 -11 -10 -5 0 -7 -4 -4 -10 3 -5 -1
-10 -10 -10 -13 0 -14 4 -5 20 11 21 30 27 30 10z m354 -34 c28 -23 28 -24 9
-35 -11 -5 -24 -7 -28 -3 -5 4 -5 2 -2 -4 4 -7 0 -17 -8 -24 -8 -7 -12 -16
-10 -21 7 -10 -16 -49 -29 -49 -5 0 -15 -8 -22 -17 -12 -16 -13 -12 -8 28 9
67 -10 70 -34 7 -13 -34 -22 -48 -26 -38 -9 22 24 81 75 132 24 25 46 45 49
46 3 1 18 -9 34 -22z m-599 -6 c3 -5 -1 -10 -10 -10 -9 0 -13 5 -10 10 3 6 8
10 10 10 2 0 7 -4 10 -10z m-278 -45 c4 -28 -12 -65 -28 -65 -5 0 -7 11 -4 25
3 14 7 37 10 51 7 30 18 25 22 -11z m-1405 -10 c-4 -26 -22 -35 -22 -12 0 9
-3 8 -9 -2 -5 -8 -11 -9 -15 -3 -3 6 6 17 21 25 16 8 29 15 29 16 1 1 -1 -10
-4 -24z m1676 0 c2 -2 -7 -26 -19 -55 -12 -28 -25 -47 -28 -41 -4 6 -12 7 -21
0 -13 -8 -13 -11 2 -19 17 -11 14 -40 -4 -40 -6 0 -5 6 2 15 8 10 9 15 1 15
-6 0 -14 -12 -17 -27 -7 -29 -36 -63 -54 -63 -9 0 -11 5 -14 40 -1 8 11 33 26
54 15 21 28 47 28 56 0 9 12 33 28 52 26 34 41 37 70 13z m143 -9 c22 13 -9
-25 -55 -68 -39 -37 -72 -55 -83 -45 -2 3 4 26 16 51 20 46 51 71 59 47 3 -8
9 -5 19 9 11 16 18 19 23 10 5 -8 13 -9 21 -4z m-1556 -16 c-3 -5 -12 -10 -18
-10 -7 0 -6 4 3 10 19 12 23 12 15 0z m-265 -40 c0 -5 -8 -13 -17 -19 -13 -7
-21 -5 -30 7 -11 15 -12 15 -13 2 0 -9 5 -21 11 -27 8 -8 1 -21 -25 -50 -23
-24 -34 -31 -30 -18 4 11 11 26 17 33 5 6 6 12 2 12 -4 0 -1 8 6 17 10 11 10
14 2 9 -22 -12 -14 10 12 38 21 22 28 25 45 16 11 -6 20 -15 20 -20z m230 26
c0 -2 -7 -7 -16 -10 -8 -3 -12 -2 -9 4 6 10 25 14 25 6z m-411 -78 c-9 -17 -9
-24 3 -32 8 -6 13 -17 10 -25 -3 -8 0 -11 7 -7 7 5 8 0 2 -16 -5 -13 -15 -22
-23 -21 -13 3 -38 -76 -38 -120 0 -9 -4 -17 -9 -17 -6 0 -8 17 -6 38 3 20 2
28 -1 17 -3 -11 -10 -24 -14 -28 -14 -15 29 152 50 193 11 22 23 40 26 40 2 0
-1 -10 -7 -22z m2013 -20 c-6 -6 -7 0 -4 19 5 21 7 23 10 9 2 -10 0 -22 -6
-28z m-28 7 c-4 -8 1 -17 10 -21 9 -3 16 -14 16 -24 0 -23 -26 -45 -35 -30 -9
14 -48 13 -63 -2 -10 -10 -15 -10 -22 2 -7 11 -5 18 6 25 9 6 33 22 53 37 43
32 42 31 35 13z m181 5 c-3 -6 4 -10 17 -10 13 0 31 -12 42 -26 18 -25 18 -28
2 -58 -9 -17 -14 -23 -11 -12 5 18 -10 46 -25 46 -5 0 -16 -23 -25 -50 -9 -28
-21 -48 -26 -44 -5 3 -3 15 6 27 8 12 15 31 15 42 -1 19 -2 19 -20 -4 -24 -28
-25 -22 -5 26 8 20 13 38 10 41 -3 3 0 11 6 19 13 15 23 18 14 3z m120 -69
c-4 -12 -12 -18 -21 -14 -20 7 -18 31 4 35 23 6 25 3 17 -21z m-176 -23 c-9
-16 -14 -19 -17 -9 -2 7 2 17 9 22 20 13 21 11 8 -13z m-1885 -10 c-25 -30
-93 -98 -98 -98 -2 0 -1 11 2 25 3 20 9 24 23 20 11 -4 19 -3 19 2 0 9 58 73
67 73 3 0 -2 -10 -13 -22z m-116 -53 c-24 -37 -33 -42 -44 -24 -3 6 9 26 27
45 40 41 51 28 17 -21z m391 21 c9 -11 2 -21 -39 -51 -28 -21 -53 -35 -56 -32
-4 4 74 95 82 97 1 0 7 -6 13 -14z m-158 -76 c-4 -20 -10 -30 -14 -23 -9 15 3
77 14 66 4 -4 4 -24 0 -43z m1789 14 c0 -3 -10 -23 -22 -44 -24 -41 -56 -65
-44 -33 16 43 66 101 66 77z m-1631 -20 c3 -3 -1 -10 -7 -16 -9 -9 -12 -9 -12
1 0 7 -4 9 -10 6 -13 -8 -32 4 -24 16 5 9 41 4 53 -7z m1161 4 c0 -4 -7 -8
-15 -8 -8 0 -15 4 -15 8 0 5 7 9 15 9 8 0 15 -4 15 -9z m194 0 c-5 -8 0 -9 14
-6 27 8 27 6 0 -18 -12 -10 -18 -13 -14 -6 4 7 1 15 -9 18 -13 6 -14 8 -3 15
18 12 20 11 12 -3z m-1504 -43 c0 -2 -10 -10 -22 -16 -21 -11 -22 -11 -9 4 13
16 31 23 31 12z m1386 -33 c0 -10 -6 -19 -13 -19 -16 0 -17 9 -1 25 15 15 14
15 14 -6z m-176 -2 c0 -5 -2 -10 -4 -10 -3 0 -8 5 -11 10 -3 6 -1 10 4 10 6 0
11 -4 11 -10z m-1580 -20 c0 -30 -23 -110 -32 -110 -6 0 -8 6 -5 14 3 7 9 34
12 60 4 25 11 46 16 46 5 0 9 -4 9 -10z m1352 -44 c-10 -23 -9 -25 16 -28 25
-4 24 -5 -20 -28 -26 -13 -51 -21 -54 -17 -4 3 -1 20 6 37 10 23 10 34 2 42
-12 12 -32 -25 -47 -85 -10 -39 -20 -33 -22 12 -2 37 1 43 49 81 46 36 53 39
67 26 12 -12 12 -20 3 -40z m198 44 c0 -5 -2 -10 -4 -10 -3 0 -8 5 -11 10 -3
6 -1 10 4 10 6 0 11 -4 11 -10z m-28 -32 c-7 -7 -12 -8 -12 -2 0 14 12 26 19
19 2 -3 -1 -11 -7 -17z m121 8 c4 -10 1 -13 -8 -9 -8 3 -12 9 -9 14 7 12 11
11 17 -5z m-53 -5 c0 -6 -5 -13 -11 -17 -8 -5 -8 -9 1 -14 8 -5 8 -10 2 -14
-5 -3 -15 1 -22 9 -9 10 -9 15 -1 15 6 0 11 7 11 15 0 8 5 15 10 15 6 0 10 -4
10 -9z m-1720 -16 c0 -10 -30 -116 -35 -125 -3 -6 -11 -10 -17 -10 -5 0 -23
-9 -38 -20 -41 -29 -46 -2 -6 32 17 15 25 27 19 28 -21 0 -15 20 10 31 13 6
28 24 34 40 6 16 16 29 22 29 6 0 11 -2 11 -5z m833 -19 c3 -8 3 -24 0 -37 -6
-22 -7 -22 -14 -3 -11 27 -11 54 0 54 5 0 11 -6 14 -14z m856 -29 c0 -9 -2 -9
-6 0 -3 9 -10 10 -24 3 -12 -7 -19 -7 -19 -1 0 10 30 20 43 14 4 -2 7 -10 6
-16z m-1299 -22 c0 -8 4 -15 9 -15 4 0 3 -15 -3 -34 -11 -36 -40 -58 -91 -70
-28 -7 -29 -6 -14 11 9 10 19 28 22 41 4 18 1 22 -16 22 -20 1 -20 3 8 25 25
21 38 26 78 34 4 0 7 -6 7 -14z m670 0 c-7 -9 -15 -13 -19 -10 -3 3 1 10 9 15
21 14 24 12 10 -5z m250 1 c0 -8 -7 -17 -16 -20 -23 -9 -34 -7 -34 5 0 6 7 9
15 5 8 -3 14 -2 14 2 -2 15 1 22 11 22 6 0 10 -6 10 -14z m214 -33 c-4 -15 -7
-33 -7 -40 0 -8 -13 -13 -32 -13 -21 0 -40 -9 -55 -25 -13 -14 -18 -25 -11
-25 7 0 9 -4 6 -10 -3 -5 -13 -10 -21 -10 -10 0 -12 5 -8 13 6 9 5 9 -8 0 -8
-7 -18 -11 -21 -8 -4 3 -5 2 -2 -2 3 -3 -2 -15 -12 -25 -9 -11 -11 -18 -5 -18
18 0 14 -21 -5 -37 -16 -13 -16 -13 5 -3 18 9 27 8 38 -1 19 -16 18 -29 -4
-29 -10 0 -28 -13 -40 -30 -19 -25 -30 -30 -63 -30 -22 0 -55 -7 -74 -14 -38
-16 -40 -15 -24 17 6 12 -4 5 -23 -16 -18 -22 -40 -38 -48 -36 -8 1 -23 -1
-33 -6 -12 -5 -24 -2 -34 7 -12 13 -13 20 -3 39 l13 24 -29 -25 c-16 -13 -45
-39 -64 -56 -19 -17 -56 -43 -82 -58 -53 -30 -61 -40 -24 -30 31 7 43 -12 15
-26 -16 -9 -24 -8 -39 5 -10 9 -25 14 -32 11 -7 -4 -5 -1 6 6 36 25 61 50 46
45 -8 -2 -26 -7 -40 -11 l-25 -7 28 23 c29 25 37 51 12 42 -28 -11 -14 1 80
71 52 39 95 75 95 82 0 7 6 10 14 7 27 -10 56 15 56 47 0 27 2 29 15 15 21
-21 20 -25 -22 -65 -21 -20 -49 -49 -63 -65 l-25 -29 35 18 c18 10 39 23 45
29 7 6 38 29 69 51 53 36 58 38 68 21 9 -17 11 -17 33 4 12 11 29 20 36 18 8
-2 13 3 12 9 -2 7 8 20 22 29 14 9 25 25 25 35 0 20 62 55 79 44 6 -3 11 -1
11 6 0 15 29 49 42 49 5 0 6 -4 3 -10 -9 -15 19 -12 41 5 28 21 35 18 28 -12z
m-1499 -40 c-1 -27 -3 -48 -4 -48 -2 0 -4 -8 -6 -18 -2 -11 -5 -20 -7 -21 -19
-10 -104 -96 -95 -96 6 0 1 -7 -11 -16 -12 -8 -22 -22 -22 -30 0 -9 -7 -14
-17 -12 -11 2 -17 -2 -15 -11 3 -16 -15 -39 -42 -52 -15 -7 -13 -3 8 16 15 14
26 28 24 31 -3 2 -54 -48 -114 -111 -60 -64 -122 -124 -139 -132 -28 -15 -29
-15 -16 1 22 26 7 29 -33 6 -37 -20 -61 -26 -52 -12 2 4 22 16 43 27 21 10 47
26 58 35 18 14 19 14 6 -3 -8 -9 -11 -20 -8 -23 7 -7 37 50 37 71 0 8 -9 15
-20 15 -11 0 -20 5 -20 10 0 11 23 14 33 3 4 -3 21 -8 37 -10 27 -3 41 7 109
77 43 44 85 80 94 80 9 0 19 4 22 10 4 6 -1 7 -12 4 -10 -4 -2 10 20 30 20 21
37 39 37 42 0 2 -12 1 -27 -2 -26 -6 -25 -4 12 26 22 18 39 39 39 46 -1 8 13
29 30 47 18 17 35 40 39 50 11 30 16 19 12 -30z m785 37 c-8 -5 -19 -10 -25
-10 -5 0 -3 5 5 10 8 5 20 10 25 10 6 0 3 -5 -5 -10z m776 -21 c-8 -12 -40
-51 -72 -86 -57 -65 -57 -65 -70 -42 -12 21 -11 26 7 42 12 9 30 17 42 17 11
0 18 2 15 5 -8 8 44 65 59 65 7 0 13 5 13 10 0 6 5 10 11 10 6 0 4 -9 -5 -21z
m160 6 c-20 -15 -36 -19 -36 -10 0 5 38 23 50 24 3 0 -4 -6 -14 -14z m144 0
c-10 -11 -10 -19 -2 -27 6 -6 8 -17 5 -26 -4 -10 -2 -13 5 -8 8 5 10 2 6 -8
-3 -9 -10 -16 -16 -16 -5 0 -6 -5 -3 -10 3 -6 -1 -13 -10 -16 -15 -6 -37 -45
-39 -68 -1 -5 -13 -13 -28 -17 -24 -6 -28 -4 -28 14 -1 19 -4 18 -30 -14 -17
-20 -46 -49 -66 -64 l-36 -28 7 24 c6 19 -3 14 -39 -23 -31 -32 -54 -48 -71
-48 -14 0 -25 3 -25 7 0 13 90 90 97 84 4 -3 0 5 -8 19 -9 14 -19 31 -23 38
-6 10 -11 10 -22 1 -7 -6 -12 -14 -10 -18 6 -9 -40 -8 -50 1 -4 4 7 14 25 21
17 7 28 16 24 20 -3 4 1 7 10 7 15 0 22 11 18 33 0 4 6 7 14 7 19 0 19 -9 -1
-31 -21 -23 -10 -39 26 -39 25 0 31 5 41 40 7 22 18 40 25 40 21 0 28 22 11
35 -13 10 -12 13 13 22 42 16 46 -7 9 -53 -16 -20 -29 -42 -29 -48 0 -6 8 1
18 17 10 15 21 25 24 22 3 -3 22 11 43 32 31 31 110 90 124 92 2 1 -2 -6 -9
-14z m-891 -21 c-6 -7 -15 -11 -20 -8 -5 3 -3 11 4 18 16 18 31 8 16 -10z
m660 17 c10 -7 11 -13 2 -30 -7 -11 -16 -21 -21 -21 -4 0 -33 -23 -64 -51
l-56 -51 16 37 c14 35 89 125 103 125 3 0 12 -4 20 -9z m-800 -10 c7 -5 9 -11
5 -14 -34 -20 -104 -57 -108 -57 -3 0 -6 9 -6 20 0 15 13 26 43 40 50 22 48
22 66 11z m-589 -4 c0 -2 -10 -12 -22 -23 l-23 -19 19 23 c18 21 26 27 26 19z
m747 -27 c-3 -11 -1 -18 3 -15 5 3 15 -2 23 -10 9 -8 20 -15 26 -15 6 0 2 -9
-9 -20 -11 -11 -27 -20 -35 -20 -8 0 -15 -6 -15 -12 -1 -8 -6 -6 -14 5 -7 9
-19 17 -27 17 -11 0 -11 -2 1 -11 12 -9 12 -10 1 -7 -21 6 -26 28 -7 28 20 0
20 7 2 25 -7 8 -17 11 -21 7 -5 -4 -5 -1 0 6 4 8 16 11 27 9 11 -3 17 -3 14 0
-7 8 13 33 26 33 6 0 8 -9 5 -20z m119 -7 c-2 -2 -11 0 -20 3 -14 5 -15 9 -5
15 12 7 34 -10 25 -18z m-1289 -25 c-27 -21 -36 -4 -11 21 13 12 21 15 26 7 4
-6 -2 -19 -15 -28z m217 -3 c-4 -8 -10 -15 -15 -15 -4 0 -6 7 -3 15 4 8 10 15
15 15 4 0 6 -7 3 -15z m107 -28 c-10 -9 -11 -8 -5 6 3 10 9 15 12 12 3 -3 0
-11 -7 -18z m739 -3 c0 -2 -7 -4 -15 -4 -8 0 -15 4 -15 10 0 5 7 7 15 4 8 -4
15 -8 15 -10z m1150 1 c0 -8 -2 -15 -4 -15 -2 0 -6 7 -10 15 -3 8 -1 15 4 15
6 0 10 -7 10 -15z m-1275 -16 c-4 -5 -16 -9 -28 -9 -21 1 -21 1 -3 15 20 15
41 11 31 -6z m-754 2 c-8 -5 -16 -16 -17 -24 -5 -36 -54 -87 -54 -56 0 6 -7 9
-15 5 -8 -3 -15 -2 -15 2 0 11 61 68 80 75 24 9 36 7 21 -2z m-260 -24 c-13
-13 -26 -3 -16 12 3 6 11 8 17 5 6 -4 6 -10 -1 -17z m1172 0 c7 4 6 -1 -2 -10
-12 -15 -11 -17 3 -17 9 0 16 -4 16 -9 0 -9 -118 -50 -125 -43 -2 3 1 14 7 26
7 11 11 24 11 27 -1 4 3 6 10 6 32 -1 57 4 56 11 -3 16 3 26 8 14 2 -6 10 -9
16 -5z m480 -7 c-3 -12 -8 -19 -11 -16 -5 6 5 36 12 36 2 0 2 -9 -1 -20z
m-1685 -20 c-5 -24 -38 -25 -38 -1 0 14 6 19 20 18 13 -1 19 -7 18 -17z m1067
-45 c-23 -29 -33 -34 -63 -33 -21 1 -52 -5 -70 -13 -28 -12 -34 -12 -42 1 -5
8 -6 18 -4 22 8 12 54 9 54 -3 0 -8 4 -8 14 1 25 20 100 57 119 59 16 1 14 -4
-8 -34z m-1015 11 c0 -2 -8 -10 -17 -17 -16 -13 -17 -12 -4 4 13 16 21 21 21
13z m2070 -16 c0 -11 -4 -20 -9 -20 -7 0 -8 17 -2 38 4 10 11 -2 11 -18z
m-495 -100 c-3 -5 -12 -10 -18 -10 -7 0 -6 4 3 10 19 12 23 12 15 0z m-1698
-16 c-3 -3 -12 -4 -19 -1 -8 3 -5 6 6 6 11 1 17 -2 13 -5z m1663 2 c0 -2 -7
-7 -16 -10 -8 -3 -12 -2 -9 4 6 10 25 14 25 6z m-130 -26 c0 -11 -4 -20 -9
-20 -6 0 -9 9 -8 20 1 11 5 20 9 20 4 0 8 -9 8 -20z m190 16 c0 -2 -7 -7 -16
-10 -8 -3 -12 -2 -9 4 6 10 25 14 25 6z m-679 -17 c13 -6 19 -19 17 -32 -1
-12 1 -28 5 -34 11 -17 0 -33 -21 -33 -9 0 -32 -9 -50 -20 -39 -24 -46 -25
-38 -5 3 8 0 15 -7 15 -7 0 -21 8 -32 16 -14 11 -15 15 -5 14 34 -5 49 0 44
15 -4 8 -2 15 4 15 5 0 12 9 15 19 3 14 1 18 -9 14 -8 -3 -14 -1 -14 5 0 22
59 29 91 11z m653 -52 c-2 -7 -14 -18 -25 -25 -18 -12 -19 -11 -10 7 9 16 17
23 38 30 1 1 0 -5 -3 -12z m-754 -1 c0 -3 -4 -8 -10 -11 -5 -3 -10 -1 -10 4 0
6 5 11 10 11 6 0 10 -2 10 -4z m-130 -57 c0 -5 3 -8 8 -6 29 9 -24 -77 -102
-168 -14 -16 -26 -33 -26 -37 0 -5 -4 -8 -10 -8 -19 0 -10 29 16 54 22 20 26
30 21 58 -3 20 1 44 9 58 7 14 13 22 14 18 0 -11 40 30 40 42 0 5 7 7 15 4 8
-4 15 -10 15 -15z m122 -31 c-7 -7 -12 -8 -12 -2 0 14 12 26 19 19 2 -3 -1
-11 -7 -17z m-1186 -9 c19 -22 19 -22 -3 -8 -13 8 -23 17 -23 21 0 12 6 9 26
-13z m1154 -50 c0 -10 -91 -98 -117 -113 -20 -11 40 77 74 109 26 23 43 25 43
4z m190 13 c0 -8 -83 -52 -98 -52 -4 0 13 14 38 30 46 31 60 36 60 22z m-1265
-72 c-22 -22 -44 -40 -49 -40 -6 0 10 20 34 45 24 24 46 42 49 40 2 -3 -13
-23 -34 -45z m1710 21 c3 -5 2 -12 -3 -15 -5 -3 -9 1 -9 9 0 17 3 19 12 6z
m-662 -86 c-3 -9 -8 -14 -10 -11 -3 3 -2 9 2 15 9 16 15 13 8 -4z m1211 -10
c10 -8 22 -12 26 -10 15 9 19 -24 5 -35 -15 -13 -39 -4 -30 11 3 5 0 6 -8 3
-10 -3 -16 3 -19 20 -6 29 -1 31 26 11z m-1311 -18 c6 4 2 -7 -10 -23 -11 -16
-38 -62 -59 -102 -21 -41 -40 -68 -42 -62 -3 7 17 54 44 106 27 52 51 89 52
84 2 -6 9 -7 15 -3z m1383 -26 c-4 -5 -1 -11 5 -13 7 -2 5 -9 -5 -17 -14 -12
-16 -11 -9 5 6 17 5 17 -10 5 -19 -15 -23 -1 -5 17 14 14 32 16 24 3z m-1583
-57 c-20 -32 -38 -50 -57 -55 -28 -8 -28 -8 -10 14 38 46 88 96 91 93 2 -2 -9
-25 -24 -52z m940 -51 c16 -19 18 -25 7 -38 -21 -26 -38 -18 -34 16 3 23 0 30
-10 26 -14 -6 -30 19 -41 63 -6 23 -4 22 26 -10 18 -19 41 -45 52 -57z m691
79 c2 -4 -4 -8 -14 -8 -10 0 -16 4 -14 8 3 4 9 8 14 8 5 0 11 -4 14 -8z
m-2468 -27 c-3 -9 -12 -15 -19 -13 -8 2 -26 -10 -41 -27 -18 -20 -26 -24 -22
-12 3 10 6 23 6 28 0 5 5 9 11 9 6 0 22 9 36 20 28 22 39 20 29 -5z m743 -142
c-29 -43 -54 -72 -56 -66 -4 10 -9 10 -23 0 -15 -9 -27 -9 -53 1 -47 17 -56
15 -69 -13 -6 -13 -33 -36 -59 -50 -52 -27 -69 -31 -69 -15 0 6 6 10 14 10 8
0 17 7 20 15 3 9 22 23 41 31 23 9 35 20 33 31 -2 10 10 24 30 36 22 13 32 15
30 6 -2 -8 11 -15 35 -19 30 -6 37 -4 33 6 -3 9 2 14 12 14 15 0 15 2 2 10
-10 6 -11 10 -2 10 18 0 27 -4 25 -11 -1 -4 7 -5 18 -2 11 3 18 10 16 16 -4
12 51 67 66 67 4 0 -16 -35 -44 -77z m-769 49 c0 -8 -43 -32 -58 -32 -6 0 49
40 56 40 1 0 2 -4 2 -8z m-99 -53 c-30 -25 -93 -16 -77 10 4 6 28 10 53 9 l47
-1 -23 -18z m229 11 c0 -5 -5 -10 -11 -10 -5 0 -7 5 -4 10 3 6 8 10 11 10 2 0
4 -4 4 -10z m534 -5 c-4 -8 -8 -15 -10 -15 -2 0 -4 7 -4 15 0 8 4 15 10 15 5
0 7 -7 4 -15z m1211 -29 c24 -32 69 -136 61 -143 -3 -3 -19 15 -87 96 -9 10
-8 15 2 23 11 8 10 9 -3 4 -22 -7 -35 13 -17 25 11 7 10 9 -3 9 -10 0 -18 5
-18 10 0 23 41 8 65 -24z m795 14 c0 -5 -4 -10 -10 -10 -5 0 -10 5 -10 10 0 6
5 10 10 10 6 0 10 -4 10 -10z m-2615 -9 c-6 -11 -63 -41 -77 -41 -21 0 -5 19
22 25 16 4 32 11 35 16 4 5 11 9 16 9 6 0 8 -4 4 -9z m85 -6 c-12 -15 -63 -18
-54 -3 3 5 10 6 15 3 5 -4 17 -1 26 4 25 14 27 13 13 -4z m2569 -52 c-15 -17
-22 -10 -24 22 -1 22 1 23 17 8 14 -12 15 -19 7 -30z m-2204 1 c-34 -26 -75
-45 -75 -35 0 6 9 15 20 21 11 6 20 8 20 5 0 -3 10 1 22 9 29 21 39 20 13 0z
m225 -24 c0 -5 -5 -10 -11 -10 -5 0 -7 5 -4 10 3 6 8 10 11 10 2 0 4 -4 4 -10z
m1576 -33 c57 -17 92 -42 78 -56 -7 -8 -19 -9 -36 -2 -14 5 -58 13 -99 17
l-73 7 28 23 c31 27 45 29 102 11z m144 -22 c10 -12 9 -18 -6 -32 -13 -13 -19
-14 -22 -5 -2 7 -10 19 -18 26 -8 8 -14 17 -14 20 0 12 48 5 60 -9z m257 9
c-3 -3 -12 -4 -19 -1 -8 3 -5 6 6 6 11 1 17 -2 13 -5z m-230 -26 c-3 -8 -6 -5
-6 6 -1 11 2 17 5 13 3 -3 4 -12 1 -19z m70 16 c-3 -3 -12 -4 -19 -1 -8 3 -5
6 6 6 11 1 17 -2 13 -5z m-1051 -180 c-3 -9 1 -14 12 -15 13 0 14 -2 2 -6 -30
-10 -66 -28 -83 -42 -17 -15 -18 -14 -11 14 4 17 13 34 21 38 7 5 10 13 7 19
-4 6 -3 8 2 5 6 -3 16 -2 24 3 18 11 33 2 26 -16z m462 -49 c-1 -1 -23 1 -48
5 -46 7 -40 17 15 22 19 2 31 -2 33 -10 2 -8 2 -15 0 -17z"/>
<path d="M2480 4511 c0 -29 89 -85 107 -67 4 3 -1 6 -11 6 -17 0 -29 8 -72 47
-13 12 -24 18 -24 14z"/>
<path d="M2453 4423 c9 -2 25 -2 35 0 9 3 1 5 -18 5 -19 0 -27 -2 -17 -5z"/>
<path d="M3435 4085 c22 -19 45 -34 50 -34 6 0 -8 15 -29 34 -22 19 -44 35
-50 35 -6 0 7 -16 29 -35z"/>
<path d="M2940 3486 c0 -2 7 -7 16 -10 8 -3 12 -2 9 4 -6 10 -25 14 -25 6z"/>
<path d="M2545 3440 c-9 -15 3 -30 23 -29 14 1 14 2 -2 6 -14 4 -15 7 -6 13 8
5 9 10 2 14 -6 3 -13 2 -17 -4z"/>
<path d="M2694 3357 c16 -11 13 -13 -24 -15 -27 -2 -39 1 -35 8 3 5 1 10 -5
10 -7 0 -10 -6 -8 -12 4 -12 107 -30 117 -21 8 6 -32 43 -47 43 -13 0 -13 -2
2 -13z"/>
<path d="M2999 3338 c-7 -17 -6 -77 2 -73 5 4 8 22 6 41 -2 30 -4 40 -8 32z"/>
<path d="M3201 3194 c0 -11 3 -14 6 -6 3 7 2 16 -1 19 -3 4 -6 -2 -5 -13z"/>
<path d="M3105 3175 c-3 -8 -7 -21 -9 -28 -2 -8 1 -14 7 -14 7 0 12 13 13 29
1 31 -4 37 -11 13z"/>
<path d="M2700 3155 c-7 -8 -9 -15 -6 -15 4 0 14 7 22 15 9 8 11 15 6 15 -5 0
-15 -7 -22 -15z"/>
<path d="M2780 3081 c0 -5 5 -13 10 -16 6 -3 10 -2 10 4 0 5 -4 13 -10 16 -5
3 -10 2 -10 -4z"/>
<path d="M4174 2775 c8 -8 18 -15 22 -15 3 0 1 7 -6 15 -7 8 -17 15 -22 15 -5
0 -3 -7 6 -15z"/>
<path d="M1757 2393 c-4 -3 -7 -11 -7 -17 0 -6 5 -5 12 2 6 6 9 14 7 17 -3 3
-9 2 -12 -2z"/>
<path d="M2036 2412 c-3 -5 1 -9 9 -9 8 0 12 4 9 9 -3 4 -7 8 -9 8 -2 0 -6 -4
-9 -8z"/>
<path d="M1888 2233 c-18 -21 -31 -43 -25 -43 2 0 13 14 25 30 25 33 24 41 0
13z"/>
<path d="M2662 1676 c7 -8 15 -12 17 -11 5 6 -10 25 -20 25 -5 0 -4 -6 3 -14z"/>
<path d="M2602 1590 c-18 -11 -32 -27 -32 -36 0 -13 5 -12 30 6 53 38 55 62 2
30z"/>
<path d="M2490 1571 c0 -6 4 -13 10 -16 6 -3 7 1 4 9 -7 18 -14 21 -14 7z"/>
<path d="M2585 1500 c-3 -6 1 -7 9 -4 18 7 21 14 7 14 -6 0 -13 -4 -16 -10z"/>
<path d="M1200 1519 c0 -5 5 -7 10 -4 6 3 10 8 10 11 0 2 -4 4 -10 4 -5 0 -10
-5 -10 -11z"/>
<path d="M3165 1650 c-3 -6 1 -7 9 -4 18 7 21 14 7 14 -6 0 -13 -4 -16 -10z"/>
<path d="M3059 1601 c-13 -11 -21 -22 -18 -25 3 -3 16 5 29 19 28 30 22 33
-11 6z"/>
<path d="M3656 681 c-25 -9 -16 -14 58 -31 39 -9 53 -16 41 -20 -10 -3 21 -7
69 -8 48 -1 95 -6 104 -11 9 -4 40 -5 67 -2 45 6 47 7 20 13 -45 9 -67 15 -95
26 -14 5 -43 7 -65 3 -41 -7 -145 15 -145 31 0 10 -28 9 -54 -1z"/>
<path d="M3758 678 c6 -6 18 -8 28 -6 14 3 12 5 -9 10 -19 3 -25 2 -19 -4z"/>
<path d="M3907 683 c-12 -11 -8 -25 6 -20 6 2 26 -2 44 -10 39 -16 46 -16 37
-2 -3 6 0 15 7 20 10 6 8 9 -9 9 -13 0 -20 -4 -17 -10 10 -16 -12 -12 -29 5
-16 16 -29 19 -39 8z"/>
<path d="M4055 640 c11 -5 27 -9 35 -9 9 0 8 4 -5 9 -11 5 -27 9 -35 9 -9 0
-8 -4 5 -9z"/>
<path d="M4175 590 c-3 -5 -1 -10 4 -10 6 0 11 5 11 10 0 6 -2 10 -4 10 -3 0
-8 -4 -11 -10z"/>
<path d="M3820 586 c0 -2 9 -6 20 -9 11 -3 18 -1 14 4 -5 9 -34 13 -34 5z"/>
<path d="M4136 517 c0 -17 6 -33 12 -35 16 -5 15 43 0 56 -10 8 -13 3 -12 -21z"/>
<path d="M2338 493 c6 -2 18 -2 25 0 6 3 1 5 -13 5 -14 0 -19 -2 -12 -5z"/>
<path d="M2770 372 c0 -5 14 -21 31 -38 31 -29 65 -84 53 -84 -4 0 -1 -7 6
-15 9 -11 9 -15 1 -15 -6 0 -17 11 -23 25 -6 14 -15 25 -20 25 -21 0 30 -54
72 -75 25 -13 70 -42 99 -65 65 -52 103 -59 162 -31 24 11 37 21 29 21 -13 0
-13 1 0 10 25 15 -4 34 -55 35 -40 2 -45 0 -40 -17 4 -10 4 -18 2 -18 -9 0
-57 49 -57 58 0 5 -13 15 -30 22 -16 7 -28 16 -25 20 3 5 2 15 -1 24 -5 12
-10 14 -19 6 -9 -8 -14 -6 -19 5 -3 8 -12 15 -19 15 -8 0 -35 23 -61 50 -41
44 -86 66 -86 42z"/>
<path d="M3020 361 c0 -6 12 -13 28 -16 15 -3 55 -19 90 -36 34 -16 73 -29 87
-29 13 0 27 -5 31 -11 4 -7 16 -2 33 14 14 14 35 27 46 30 11 3 1 5 -22 6 -29
1 -43 5 -43 15 0 9 -10 13 -32 11 -18 -1 -40 1 -48 5 -27 13 -170 22 -170 11z"/>
<path d="M3444 306 c7 -19 6 -19 -64 -1 l-25 6 23 -13 c12 -8 20 -16 17 -19
-2 -3 10 -6 28 -7 17 0 48 -3 67 -5 32 -5 33 -4 16 9 -11 8 -25 14 -32 14 -7
0 -18 8 -24 18 -11 16 -11 16 -6 -2z"/>
<path d="M2984 261 c7 -11 46 -35 46 -28 0 3 -12 12 -26 22 -15 9 -23 12 -20
6z"/>
<path d="M3050 219 c8 -8 21 -21 29 -29 12 -12 11 -10 0 9 -9 14 -22 27 -30
29 -11 3 -11 2 1 -9z"/>
<path d="M3276 145 c4 -8 11 -15 16 -15 6 0 5 6 -2 15 -7 8 -14 15 -16 15 -2
0 -1 -7 2 -15z"/>
<path d="M3212 124 c2 -25 28 -58 28 -35 0 6 -5 11 -10 11 -7 0 -7 6 -1 19 10
18 6 31 -11 31 -4 0 -7 -12 -6 -26z"/>
<path d="M3275 107 c16 -27 12 -53 -6 -42 -17 11 -9 -21 11 -43 12 -12 23 -22
25 -22 8 0 1 25 -10 33 -5 5 0 5 13 2 27 -8 29 8 5 33 -10 9 -26 29 -36 42
l-19 25 17 -28z"/>
</g>
</svg>
